# xmcd CD database file
#
# Track frame offsets:
#	150
#	20621
#	42422
#	67355
#	85713
#	104115
#	131971
#	152842
#	172742
#	189670
#	212694
#	235896
#	270411
#	332550
#
# Disc length: 4440 seconds
#
# Revision: 1
# Processed by: cddbd v1.5PL3 Copyright (c) Steve Scherf et al.
# Submitted via: CDex 1.51
#
DISCID=cb11560e
DTITLE=The Gospellers - Dressed up to the Nines
DYEAR=2004
DGENRE=Pop
TTITLE0=Right on ,Babe
TTITLE1=You are my girl
TTITLE2=Reflection
TTITLE3=Real tight
TTITLE4=Sweet
TTITLE5=アンジュナ
TTITLE6=エンドロール
TTITLE7=新大阪
TTITLE8=シアトリカル
TTITLE9=Yes,No,Yes...
TTITLE10=コーリング
TTITLE11=街角 -on the corner-
TTITLE12=CCCD
TTITLE13=CCCD
EXTD=YEAR: 2004
EXTT0=
EXTT1=
EXTT2=
EXTT3=
EXTT4=
EXTT5=
EXTT6=
EXTT7=
EXTT8=
EXTT9=
EXTT10=
EXTT11=
EXTT12=
EXTT13=
PLAYORDER=
